# xmcd
#
# Track frame offsets:
# 150
# 17215
# 33237
# 58247
# 80212
# 99755
# 119577
# 142540
# 165317
# 177575
# 195502
# 221025
#
# Disc length: 3227 seconds
#
# Revision: 0
# Processed by: cddbd v1.4PL0 Copyright (c) Steve Scherf et al.
# Submitted via: Audion 3.0.2 (http://www.panic.com/audion/)
#
DISCID=a00c990c
DTITLE=Bonnie Raitt - Luck of the Draw
DYEAR=1900
DGENRE=
TTITLE0=Something to Talk About
TTITLE1=Good Man, Good Woman
TTITLE2=I Can't Make You Love Me
TTITLE3=Tangled and Dark
TTITLE4=Come To Me
TTITLE5=No Business
TTITLE6=One Part Be My Lover
TTITLE7=Not the Only One
TTITLE8=Papa Come Quick (Jody and Chico)
TTITLE9=Slow Ride
TTITLE10=Luck of the Draw
TTITLE11=All At Once
EXTD=
EXTT0=
EXTT1=
EXTT2=
EXTT3=
EXTT4=
EXTT5=
EXTT6=
EXTT7=
EXTT8=
EXTT9=
EXTT10=
EXTT11=
PLAYORDER=
